<svg xmlns="http://www.w3.org/2000/svg" width="21" height="21"><path fill-rule="evenodd" fill="#FFF" d="M17.883 12.75a2.145 2.145 0 01-2.146-2.147c0-1.186.959-2.145 2.146-2.145 1.187 0 2.146.959 2.146 2.145a2.145 2.145 0 01-2.146 2.147zm0-7.869a2.144 2.144 0 01-2.146-2.146c0-1.187.959-2.146 2.146-2.146 1.187 0 2.146.959 2.146 2.146a2.144 2.144 0 01-2.146 2.146zm-7.869 15.737a2.144 2.144 0 01-2.146-2.146c0-1.187.96-2.146 2.146-2.146 1.187 0 2.146.959 2.146 2.146a2.144 2.144 0 01-2.146 2.146zm0-7.868a2.145 2.145 0 110-4.292c1.187 0 2.146.959 2.146 2.145a2.145 2.145 0 01-2.146 2.147zm0-7.869a2.145 2.145 0 110-4.292c1.187 0 2.146.959 2.146 2.146a2.144 2.144 0 01-2.146 2.146zM2.146 20.618A2.144 2.144 0 010 18.472c0-1.187.959-2.146 2.146-2.146 1.187 0 2.146.959 2.146 2.146a2.144 2.144 0 01-2.146 2.146zm0-7.868A2.145 2.145 0 010 10.603c0-1.186.959-2.145 2.146-2.145 1.187 0 2.146.959 2.146 2.145a2.145 2.145 0 01-2.146 2.147zm0-7.869A2.144 2.144 0 010 2.735C0 1.548.959.589 2.146.589c1.187 0 2.146.959 2.146 2.146a2.144 2.144 0 01-2.146 2.146zm15.737 11.445c1.187 0 2.146.959 2.146 2.146a2.144 2.144 0 01-2.146 2.146 2.144 2.144 0 01-2.146-2.146c0-1.187.959-2.146 2.146-2.146z"/></svg>